<svg width="16" height="20" viewBox="0 0 16 20" fill="none" xmlns="http://www.w3.org/2000/svg">
<path d="M8 0.588257C5.05882 0.588257 2.70588 2.9412 2.70588 5.88237V8.23532C1.70588 8.23532 0.941177 9.00002 0.941177 10V17.6471C0.941177 18.6471 1.70588 19.4118 2.70588 19.4118H13.2941C14.2941 19.4118 15.0588 18.6471 15.0588 17.6471V10C15.0588 9.00002 14.2941 8.23532 13.2941 8.23532V5.88237C13.2941 2.9412 10.9412 0.588257 8 0.588257ZM13.8824 10V17.6471C13.8824 18 13.6471 18.2353 13.2941 18.2353H2.70588C2.35294 18.2353 2.11765 18 2.11765 17.6471V10C2.11765 9.64708 2.35294 9.41179 2.70588 9.41179H3.29412H12.7059H13.2941C13.6471 9.41179 13.8824 9.64708 13.8824 10ZM3.88235 8.23532V5.88237C3.88235 3.58826 5.70588 1.76473 8 1.76473C10.2941 1.76473 12.1176 3.58826 12.1176 5.88237V8.23532H3.88235Z" fill="#001C69"/>
</svg>
